<svg xmlns="http://www.w3.org/2000/svg" width="2932" height="355" viewBox="0 0 2932 355">
  <defs>
    <style>
      .cls-1 {
      fill: #fff;
      fill-rule: evenodd;
      }
    </style>
  </defs>
  <path id="Drone_Remote" data-name="Drone Remote" class="cls-1" d="M0.094,349.159c19.529,2.725,44.508,4.088,75.391,4.088,61.312,0,110.815-15.442,142.153-45.871,30.428-29.52,49.957-75.391,49.957-138.519V168.4C267.6,91.2,236.712-.092,88.655-0.092A558.116,558.116,0,0,0,.094,7.175V349.159ZM52.777,45.325a209.608,209.608,0,0,1,40.875-3.633c74.937,0,118.537,43.6,118.537,128.074,0,95.828-47.233,141.7-125.349,141.245-12.262,0-24.979-.455-34.062-1.817V45.325ZM444.718,95.737a61.651,61.651,0,0,0-13.17-1.362c-27.25,0-53.592,19.529-64.946,51.32h-1.816l-1.817-45.87H317.1c1.362,23.162,1.816,47.233,1.816,76.3V350.068H371.6V217.452c0-43.6,22.254-72.666,57.679-72.666a78.011,78.011,0,0,1,15.441,1.363V95.737Zm143.058-1.362c-66.308,0-118.082,47.687-118.082,132.161,0,80.841,49.5,128.528,114.449,128.528,56.316,0,117.174-38.6,117.174-132.161C701.317,146.149,656.355,94.374,587.776,94.374Zm59.5,129.891c0,49.957-23.616,91.286-61.766,91.286-38.6,0-61.766-41.329-61.766-90.378,0-43.146,17.258-91.287,62.22-91.287C630.013,133.886,647.271,182.936,647.271,224.265Zm312.919-27.25c0-77.208-43.6-102.641-82.657-102.641-37.7,0-64.037,21.346-75.846,42.691h-1.362L797.6,99.824H751.73c0.908,21.346,1.816,42.691,1.816,70.4V350.068h52.683V199.286c0-39.967,27.7-61.312,53.591-61.312,35.879,0,47.687,29.974,47.687,65.4v146.7H960.19V197.015Zm240.71,105.82c-16.35,6.812-35.43,11.808-63.13,11.808-39.51,0-74.48-21.346-75.85-77.662h158.96a157.606,157.606,0,0,0,1.36-22.254c0-61.766-28.15-120.353-98.55-120.353-70.85,0-112.63,59.495-112.63,133.978,0,76.3,43.6,126.711,118.99,126.711,34.06,0,61.76-6.812,79.48-14.987ZM1062.38,199.286c2.72-29.067,19.07-67.216,57.68-67.216,40.42,0,52.68,37.241,52.23,67.216H1062.38Zm464.15-15.442c34.98-13.171,62.23-43.6,62.23-88.107,0-28.158-9.54-52.229-27.71-68.124-21.8-19.529-53.59-27.7-99.01-27.7-31.33,0-62.22,3.179-84.47,7.267V350.068h52.23V202.919h31.79c36.79,0,53.59,17.712,63.13,64.037,8.63,42.691,16.8,73.12,21.8,83.112h54.5c-6.81-13.171-15.44-49.05-25.89-94.466-8.17-36.787-22.71-61.312-48.6-70.85v-0.908Zm-96.73-20.437V43.962c6.36-1.817,19.07-3.179,36.79-3.179,37.69,0,69.48,15.442,69.48,60.4,0,37.241-27.25,62.22-70.85,62.22H1429.8Zm389.67,139.428c-16.35,6.812-35.43,11.808-63.13,11.808-39.51,0-74.49-21.346-75.85-77.662h158.96a157.606,157.606,0,0,0,1.36-22.254c0-61.766-28.16-120.353-98.55-120.353-70.85,0-112.63,59.495-112.63,133.978,0,76.3,43.6,126.711,118.99,126.711,34.06,0,61.76-6.812,79.47-14.987ZM1680.95,199.286c2.72-29.067,19.07-67.216,57.67-67.216,40.43,0,52.69,37.241,52.23,67.216h-109.9Zm554.08-.455c0-79.024-40.88-104.457-78.12-104.457-35.88,0-60.4,18.167-77.21,45.871h-0.91c-10.44-28.159-34.51-45.871-66.3-45.871-38.15,0-60.86,21.346-73.12,42.237H1938l-2.72-36.787h-45.42c0.91,21.346,1.82,42.237,1.82,70.4V350.068h51.77V198.377c0-39.512,26.8-60.857,50.42-60.857,30.42,0,43.6,26.795,43.6,61.766V350.068h51.77V195.652c0-36.333,24.53-58.132,48.6-58.132,31.79,0,45.41,27.7,45.41,69.486V350.068h51.78V198.831ZM2403.06,94.374c-66.3,0-118.08,47.687-118.08,132.161,0,80.841,49.51,128.528,114.45,128.528,56.32,0,117.17-38.6,117.17-132.161C2516.6,146.149,2471.64,94.374,2403.06,94.374Zm59.5,129.891c0,49.957-23.62,91.286-61.77,91.286-38.6,0-61.76-41.329-61.76-90.378,0-43.146,17.26-91.287,62.22-91.287C2445.3,133.886,2462.56,182.936,2462.56,224.265ZM2579.28,99.824h-35.42v39.512h35.42V268.773c0,32.7,5.9,53.591,18.62,67.216,10.9,12.262,28.61,19.074,49.5,19.074,17.72,0,31.8-2.27,40.88-5.9l-1.82-40.42a76.644,76.644,0,0,1-23.16,3.179c-22.25,0-31.79-14.987-31.79-45.87V139.336H2691V99.824h-59.49V38.058l-52.23,16.35V99.824Zm331.53,203.011c-16.35,6.812-35.42,11.808-63.12,11.808-39.52,0-74.49-21.346-75.85-77.662H2930.8a157.606,157.606,0,0,0,1.36-22.254c0-61.766-28.16-120.353-98.55-120.353-70.85,0-112.64,59.495-112.64,133.978,0,76.3,43.6,126.711,119,126.711,34.06,0,61.76-6.812,79.47-14.987ZM2772.29,199.286c2.73-29.067,19.08-67.216,57.68-67.216,40.42,0,52.69,37.241,52.23,67.216H2772.29Z"/>

</svg>
