<svg xmlns="http://www.w3.org/2000/svg" width="456" height="456" viewBox="0 0 456 456">
  <defs>
    <style>
      .cls-1 {
      fill: #fff;
      fill-rule: evenodd;
      }
    </style>
  </defs>
  <path id="DRONE" class="cls-1" d="M90.133,260.993a108.509,108.509,0,0,0,14.525.788c11.812,0,21.35-2.975,27.387-8.838,5.863-5.687,9.625-14.525,9.625-26.687v-0.088c0-14.875-5.95-32.462-34.475-32.462a107.468,107.468,0,0,0-17.062,1.4v65.887Zm10.15-58.537a40.383,40.383,0,0,1,7.875-.7c14.437,0,22.837,8.4,22.837,24.675,0,18.462-9.1,27.3-24.15,27.212a48.586,48.586,0,0,1-6.562-.35V202.456Zm80.5,26.687c6.737-2.537,11.987-8.4,11.987-16.975,0-5.425-1.837-10.062-5.337-13.125-4.2-3.762-10.325-5.337-19.075-5.337a94.725,94.725,0,0,0-16.275,1.4v66.062h10.062v-28.35h6.125c7.088,0,10.325,3.413,12.163,12.338,1.662,8.225,3.237,14.087,4.2,16.012h10.5c-1.313-2.537-2.975-9.45-4.988-18.2-1.575-7.087-4.375-11.812-9.362-13.65v-0.175Zm-18.638-3.937V202.193a29.92,29.92,0,0,1,7.088-.612c7.262,0,13.387,2.975,13.387,11.637,0,7.175-5.25,11.988-13.65,11.988h-6.825Zm67.287-32.025c-17.15,0-28.875,13.825-28.875,34.912,0,20.213,10.937,34.038,28,34.038,16.275,0,28.787-11.813,28.787-35.088C257.343,207.793,247.193,193.181,229.431,193.181Zm-0.35,8.312c11.987,0,17.587,13.125,17.587,25.9,0,14.263-6.037,26.425-17.762,26.425-11.55,0-17.675-12.425-17.675-25.987C211.231,214.706,216.743,201.493,229.081,201.493Zm86.624-7.262h-9.363v24.675c0,10.675.263,19.25,1.05,28.35l-0.262.087a190.781,190.781,0,0,0-10.85-22.137l-17.5-30.975H267.755v66.937h9.362V236.143c0-11.725-.175-20.387-0.7-28.875l0.35-.087a216.969,216.969,0,0,0,11.113,22.662l17.587,31.325h10.238V194.231Zm50.487,58.45H339.854V230.456H363.3v-8.4h-23.45V202.718H364.7v-8.487h-35v66.937h36.488v-8.487Z"/>
</svg>
